<?xml version="1.0" encoding="utf-8"?>
<!-- Generator: Adobe Illustrator 24.0.1, SVG Export Plug-In . SVG Version: 6.00 Build 0)  -->
<svg version="1.1" id="Layer_1" xmlns="http://www.w3.org/2000/svg" xmlns:xlink="http://www.w3.org/1999/xlink" x="0px" y="0px"
	 viewBox="0 0 1024 1024" style="enable-background:new 0 0 1024 1024;" xml:space="preserve">
<style type="text/css">
	.st0{fill:#0C3C45;}
	.st1{fill:#FDFDFD;}
	.st2{fill:#FEFEFE;}
	.st3{fill:#F9FAFB;}
	.st4{fill:#F7F8F8;}
</style>
<rect class="st0" width="1024" height="1024"/>
<g>
	<g>
		<path class="st0" d="M510,761.8c-82,0-163.9,0-245.9,0.1c-3.4,0-4.1-0.7-4.1-4.1c0.1-163.9,0.1-327.7,0-491.6
			c0-3.4,0.7-4.1,4.1-4.1c163.9,0.1,327.9,0.1,491.8,0c3.4,0,4.1,0.7,4.1,4.1c-0.1,163.9-0.1,327.7,0,491.6c0,3.4-0.7,4.1-4.1,4.1
			C674,761.7,592,761.8,510,761.8z M395.7,354.1c-13.8,0-27.6,0.1-41.4-0.1c-4.4,0-6.3,1.3-6.3,6c0.1,26.3,0.1,52.6,0,78.8
			c0,4,1.3,5.8,5.4,5.8c28.1-0.1,56.3-0.1,84.4,0c4.1,0,5.5-1.6,5.5-5.7c-0.1-26.3-0.1-52.6,0-78.8c0-4.6-1.6-6.2-6.1-6.1
			C423.3,354.3,409.5,354.1,395.7,354.1z M546.5,399.3c10.3,0,20.6-0.1,30.9,0.1c4,0.1,5.7-1.2,5.6-5.4c-0.1-19.8-0.1-39.6,0-59.4
			c0-4.2-1.7-5.5-5.7-5.4c-20.5,0.1-40.9,0.1-61.4,0c-4.2,0-6,1.4-6,5.7c0.1,19.6,0.1,39.2,0,58.9c0,4,1.5,5.7,5.6,5.6
			C525.9,399.2,536.2,399.3,546.5,399.3z M631.3,636.4c0,3.1,0.2,6.2,0,9.2c-0.2,2.7,0.9,3.4,3.5,3.3c5.7-0.2,11.3-0.1,17,0
			c2.4,0.1,3.1-0.7,3.1-3.1c-0.1-24.1-0.1-48.3,0-72.4c0-2.4-0.8-3.2-3.1-3.2c-5.5,0.1-11,0.2-16.5,0c-3.1-0.1-4,0.9-4,4
			c0.2,10.1,0.1,20.3,0,30.5c0,6.2-0.3,12.3-3.2,18c-3.8,7.7-11.1,11-20.1,9.2c-6.4-1.2-9.8-5.7-10.6-14.4c-0.2-2-0.2-4-0.2-6
			c0-12.5,0-25,0-37.4c0-2,0.3-4-2.9-3.9c-5.8,0.2-11.7,0.2-17.5,0c-2.7-0.1-2.9,1.2-2.9,3.4c0.1,16.3-0.1,32.6,0.2,48.9
			c0.2,7.9,2.3,15.5,8.2,21.3C595.6,656.8,619.2,653.1,631.3,636.4z M405.1,596.5c0,16.1,0.1,32.3-0.1,48.4c0,2.9,0.4,4,3.7,4
			c22-0.2,43.9-0.1,65.9,0c2.5,0,3.6-0.5,3.4-3.3c-0.2-4-0.3-8,0-12c0.2-3.1-0.7-3.9-3.8-3.9c-13.1,0.2-26.3-0.1-39.4,0.2
			c-4.4,0.1-5.8-0.8-5.8-5.6c0.3-25.1,0-50.2,0.2-75.4c0-3.7-0.9-4.9-4.7-4.7c-5.1,0.3-10.3,0.3-15.5,0c-3.4-0.2-4.1,1.1-4.1,4.3
			C405.2,564.6,405.1,580.6,405.1,596.5z M490.1,596.6c0,16.1,0,32.3,0,48.4c0,1.9-0.7,4,2.7,3.9c22.5-0.1,44.9-0.1,67.4,0
			c2.2,0,2.9-0.6,2.8-2.8c-0.2-4.2-0.3-8.3,0-12.5c0.2-3.2-0.8-3.9-3.9-3.8c-13.1,0.2-26.3-0.1-39.4,0.2c-4.4,0.1-5.8-0.9-5.7-5.6
			c0.3-25.1,0-50.2,0.2-75.4c0-3.8-1-4.9-4.7-4.7c-5,0.3-10,0.4-15,0c-4-0.3-4.6,1.3-4.6,4.8C490.2,565,490.1,580.8,490.1,596.6z
			 M363.9,609.6c0,12,0.1,23.9-0.1,35.9c0,2.5,0.6,3.5,3.3,3.4c5.6-0.2,11.3-0.2,17,0c2.4,0.1,3.1-0.7,3.1-3.1
			c-0.1-24.1-0.1-48.2,0-72.3c0-2.8-1.1-3.3-3.5-3.3c-5.3,0.1-10.7,0.2-16,0c-3.2-0.2-3.9,1-3.8,4C364,586,363.9,597.8,363.9,609.6z
			 M652,464.2c5.3,0,10.6-0.1,16,0c3.7,0.1,5-1.6,5-5.1c-0.1-9.6-0.1-19.3,0-28.9c0-3.5-1.2-5.2-5-5.2c-10.8,0.1-21.6,0.1-32.4,0
			c-3.5,0-4.7,1.7-4.7,4.9c0.1,9.8,0.1,19.6,0,29.4c0,3.7,1.6,5,5.1,4.9C641.4,464.1,646.7,464.2,652,464.2z M375.3,560.1
			c0.5,0,1,0,1.5,0c11.4,0,11.2,0,11.4-11.2c0.1-4-1.3-4.7-4.8-4.5c-4.1,0.3-8.3,0.1-12.5,0.1c-8.1,0-8.1,0-8.1,8
			c0,7.6,0,7.6,7.5,7.6C372,560.1,373.6,560.1,375.3,560.1z"/>
		<path class="st1" d="M395.7,354.1c13.8,0,27.6,0.1,41.4-0.1c4.5-0.1,6.2,1.5,6.1,6.1c-0.1,26.3-0.1,52.6,0,78.8
			c0,4.1-1.4,5.7-5.5,5.7c-28.1-0.1-56.3-0.1-84.4,0c-4.1,0-5.4-1.7-5.4-5.8c0.1-26.3,0.1-52.6,0-78.8c0-4.7,1.9-6.1,6.3-6
			C368,354.2,381.8,354.1,395.7,354.1z"/>
		<path class="st2" d="M546.5,399.3c-10.3,0-20.6-0.1-30.9,0.1c-4.1,0.1-5.6-1.6-5.6-5.6c0.1-19.6,0.1-39.2,0-58.9
			c0-4.3,1.8-5.8,6-5.7c20.5,0.1,40.9,0.1,61.4,0c4,0,5.7,1.3,5.7,5.4c-0.1,19.8-0.1,39.6,0,59.4c0,4.2-1.6,5.5-5.6,5.4
			C567.1,399.1,556.8,399.3,546.5,399.3z"/>
		<path class="st3" d="M631.3,636.4c-12.1,16.7-35.8,20.4-48.9,7.5c-5.9-5.8-8.1-13.4-8.2-21.3c-0.3-16.3-0.2-32.6-0.2-48.9
			c0-2.1,0.2-3.4,2.9-3.4c5.8,0.2,11.7,0.2,17.5,0c3.2-0.1,2.9,1.8,2.9,3.9c0,12.5,0,25,0,37.4c0,2,0,4,0.2,6
			c0.9,8.6,4.2,13.1,10.6,14.4c9,1.8,16.3-1.6,20.1-9.2c2.8-5.7,3.1-11.8,3.2-18c0.1-10.2,0.1-20.3,0-30.5c0-3,0.9-4.1,4-4
			c5.5,0.2,11,0.1,16.5,0c2.4,0,3.1,0.8,3.1,3.2c-0.1,24.1-0.1,48.3,0,72.4c0,2.4-0.8,3.2-3.1,3.1c-5.7-0.1-11.3-0.2-17,0
			c-2.5,0.1-3.6-0.6-3.5-3.3C631.5,642.6,631.3,639.5,631.3,636.4z"/>
		<path class="st1" d="M405.1,596.5c0-16,0.1-31.9-0.1-47.9c0-3.2,0.7-4.4,4.1-4.3c5.1,0.3,10.3,0.3,15.5,0c3.8-0.2,4.7,1,4.7,4.7
			c-0.2,25.1,0.1,50.2-0.2,75.4c-0.1,4.7,1.4,5.7,5.8,5.6c13.1-0.3,26.3,0,39.4-0.2c3.1,0,4,0.8,3.8,3.9c-0.3,4-0.2,8,0,12
			c0.2,2.7-0.9,3.3-3.4,3.3c-22-0.1-43.9-0.1-65.9,0c-3.3,0-3.8-1.1-3.7-4C405.2,628.8,405.1,612.7,405.1,596.5z"/>
		<path class="st1" d="M490.1,596.6c0-15.8,0.1-31.6-0.1-47.4c0-3.5,0.6-5.1,4.6-4.8c5,0.4,10,0.3,15,0c3.7-0.2,4.7,0.8,4.7,4.7
			c-0.2,25.1,0,50.2-0.2,75.4c0,4.7,1.3,5.7,5.7,5.6c13.1-0.3,26.3,0,39.4-0.2c3,0,4.1,0.7,3.9,3.8c-0.3,4.1-0.2,8.3,0,12.5
			c0.1,2.2-0.7,2.8-2.8,2.8c-22.5-0.1-44.9-0.1-67.4,0c-3.4,0-2.7-2.1-2.7-3.9C490.1,628.9,490.1,612.7,490.1,596.6z"/>
		<path class="st1" d="M363.9,609.6c0-11.8,0.1-23.6-0.1-35.4c0-3,0.6-4.2,3.8-4c5.3,0.3,10.6,0.2,16,0c2.5-0.1,3.5,0.5,3.5,3.3
			c-0.1,24.1-0.1,48.2,0,72.3c0,2.4-0.6,3.2-3.1,3.1c-5.6-0.2-11.3-0.2-17,0c-2.7,0.1-3.3-0.9-3.3-3.4
			C364,633.6,363.9,621.6,363.9,609.6z"/>
		<path class="st2" d="M652,464.2c-5.3,0-10.6-0.1-16,0c-3.5,0.1-5.2-1.1-5.1-4.9c0.1-9.8,0.1-19.6,0-29.4c0-3.3,1.2-4.9,4.7-4.9
			c10.8,0.1,21.6,0.1,32.4,0c3.7,0,5,1.7,5,5.2c-0.1,9.6-0.1,19.3,0,28.9c0,3.5-1.3,5.2-5,5.1C662.7,464.1,657.3,464.2,652,464.2z"
			/>
		<path class="st4" d="M375.3,560.1c-1.7,0-3.3,0-5,0c-7.5,0-7.5,0-7.5-7.6c0-8,0-8,8.1-8c4.2,0,8.3,0.2,12.5-0.1
			c3.5-0.2,4.9,0.5,4.8,4.5c-0.2,11.2,0,11.2-11.4,11.2C376.3,560.1,375.8,560.1,375.3,560.1z"/>
	</g>
</g>
</svg>
